<svg width="173" height="31" viewBox="0 0 173 31" fill="none" xmlns="http://www.w3.org/2000/svg">
<path d="M2.928 24.24C2.448 24.24 2.064 24.112 1.776 23.856C1.488 23.6 1.344 23.248 1.344 22.8V12.912C1.344 11.056 1.872 9.6 2.928 8.544C3.984 7.488 5.44 6.96 7.296 6.96C8.192 6.96 9.032 7.184 9.816 7.632C10.616 8.064 11.304 8.688 11.88 9.504C12.44 8.672 13.112 8.04 13.896 7.608C14.696 7.176 15.56 6.96 16.488 6.96C18.344 6.96 19.8 7.488 20.856 8.544C21.912 9.6 22.44 11.056 22.44 12.912V22.8C22.44 23.232 22.288 23.584 21.984 23.856C21.696 24.112 21.312 24.24 20.832 24.24C20.352 24.24 19.968 24.112 19.68 23.856C19.392 23.6 19.248 23.248 19.248 22.8V12.912C19.248 11.696 19.024 10.824 18.576 10.296C18.128 9.752 17.392 9.48 16.368 9.48C15.44 9.48 14.72 9.776 14.208 10.368C13.712 10.96 13.464 11.808 13.464 12.912V22.8C13.464 23.248 13.32 23.6 13.032 23.856C12.744 24.112 12.36 24.24 11.88 24.24C11.4 24.24 11.016 24.112 10.728 23.856C10.456 23.6 10.32 23.248 10.32 22.8V12.912C10.32 11.84 10.064 11 9.552 10.392C9.04 9.784 8.328 9.48 7.416 9.48C6.392 9.48 5.656 9.752 5.208 10.296C4.76 10.824 4.536 11.696 4.536 12.912V22.8C4.536 23.232 4.384 23.584 4.08 23.856C3.792 24.112 3.408 24.24 2.928 24.24ZM30.1251 24.24C29.6451 24.24 29.2611 24.112 28.9731 23.856C28.6851 23.6 28.5411 23.248 28.5411 22.8V10.344L26.4771 11.136C26.1891 11.248 25.9091 11.304 25.6371 11.304C25.0771 11.304 24.6771 11.064 24.4371 10.584C24.3251 10.36 24.2691 10.128 24.2691 9.888C24.2691 9.344 24.6051 8.952 25.2771 8.712L29.7171 7.032C29.9091 6.968 30.1091 6.936 30.3171 6.936C30.7331 6.936 31.0691 7.072 31.3251 7.344C31.5971 7.616 31.7331 7.976 31.7331 8.424V22.8C31.7331 23.232 31.5811 23.584 31.2771 23.856C30.9891 24.112 30.6051 24.24 30.1251 24.24ZM42.2796 24.24C41.7996 24.24 41.4156 24.112 41.1276 23.856C40.8396 23.6 40.6956 23.248 40.6956 22.8V12.912C40.6956 11.056 41.2236 9.6 42.2796 8.544C43.3356 7.488 44.7916 6.96 46.6476 6.96C47.5436 6.96 48.3836 7.184 49.1676 7.632C49.9676 8.064 50.6556 8.688 51.2316 9.504C51.7916 8.672 52.4636 8.04 53.2476 7.608C54.0476 7.176 54.9116 6.96 55.8396 6.96C57.6956 6.96 59.1516 7.488 60.2076 8.544C61.2636 9.6 61.7916 11.056 61.7916 12.912V22.8C61.7916 23.232 61.6396 23.584 61.3356 23.856C61.0476 24.112 60.6636 24.24 60.1836 24.24C59.7036 24.24 59.3196 24.112 59.0316 23.856C58.7436 23.6 58.5996 23.248 58.5996 22.8V12.912C58.5996 11.696 58.3756 10.824 57.9276 10.296C57.4796 9.752 56.7436 9.48 55.7196 9.48C54.7916 9.48 54.0716 9.776 53.5596 10.368C53.0636 10.96 52.8156 11.808 52.8156 12.912V22.8C52.8156 23.248 52.6716 23.6 52.3836 23.856C52.0956 24.112 51.7116 24.24 51.2316 24.24C50.7516 24.24 50.3676 24.112 50.0796 23.856C49.8076 23.6 49.6716 23.248 49.6716 22.8V12.912C49.6716 11.84 49.4156 11 48.9036 10.392C48.3916 9.784 47.6796 9.48 46.7676 9.48C45.7436 9.48 45.0076 9.752 44.5596 10.296C44.1116 10.824 43.8876 11.696 43.8876 12.912V22.8C43.8876 23.232 43.7356 23.584 43.4316 23.856C43.1436 24.112 42.7596 24.24 42.2796 24.24ZM69.0446 24.24C68.0526 24.24 67.1726 24.072 66.4046 23.736C65.6526 23.4 65.0606 22.936 64.6286 22.344C64.2126 21.736 64.0046 21.04 64.0046 20.256C64.0046 19.072 64.4926 18.128 65.4686 17.424C66.4606 16.72 67.7966 16.368 69.4766 16.368C70.9326 16.368 72.1006 16.68 72.9806 17.304V16.728C72.9806 15.976 72.7486 15.4 72.2846 15C71.8206 14.6 71.1486 14.4 70.2686 14.4C68.9566 14.4 67.8286 14.68 66.8846 15.24C66.4846 15.464 66.1406 15.576 65.8526 15.576C65.5006 15.576 65.1886 15.416 64.9166 15.096C64.7406 14.872 64.6526 14.64 64.6526 14.4C64.6526 14 64.8606 13.648 65.2766 13.344C65.8526 12.928 66.5806 12.6 67.4606 12.36C68.3406 12.12 69.2686 12 70.2446 12C72.1006 12 73.5566 12.424 74.6126 13.272C75.6846 14.104 76.2206 15.256 76.2206 16.728V22.896C76.2206 23.312 76.0766 23.64 75.7886 23.88C75.5166 24.12 75.1406 24.24 74.6606 24.24C74.1646 24.24 73.7806 24.128 73.5086 23.904C73.2366 23.68 73.1006 23.36 73.1006 22.944V22.68C72.1886 23.72 70.8366 24.24 69.0446 24.24ZM69.7886 22.032C70.7966 22.032 71.5806 21.88 72.1406 21.576C72.7166 21.256 73.0046 20.816 73.0046 20.256C73.0046 19.728 72.7166 19.304 72.1406 18.984C71.5646 18.664 70.7966 18.504 69.8366 18.504C68.9726 18.504 68.3006 18.656 67.8206 18.96C67.3566 19.264 67.1246 19.696 67.1246 20.256C67.1246 20.816 67.3566 21.256 67.8206 21.576C68.2846 21.88 68.9406 22.032 69.7886 22.032ZM79.8671 24.24C79.3711 24.24 78.9871 24.112 78.7151 23.856C78.4431 23.6 78.3071 23.248 78.3071 22.8V13.44C78.3071 12.976 78.4351 12.624 78.6911 12.384C78.9631 12.128 79.3391 12 79.8191 12C80.2991 12 80.6751 12.128 80.9471 12.384C81.2191 12.64 81.3551 12.992 81.3551 13.44V14.136C82.4911 12.712 84.0431 12 86.0111 12C87.5471 12 88.7551 12.488 89.6351 13.464C90.5311 14.424 90.9791 15.736 90.9791 17.4V22.8C90.9791 23.248 90.8351 23.6 90.5471 23.856C90.2591 24.112 89.8751 24.24 89.3951 24.24C88.8991 24.24 88.5151 24.112 88.2431 23.856C87.9711 23.6 87.8351 23.248 87.8351 22.8V17.4C87.8351 16.488 87.6111 15.776 87.1631 15.264C86.7151 14.752 86.0911 14.496 85.2911 14.496C84.0751 14.496 83.1311 14.856 82.4591 15.576C81.7871 16.28 81.4511 17.272 81.4511 18.552V22.8C81.4511 23.248 81.3071 23.6 81.0191 23.856C80.7311 24.112 80.3471 24.24 79.8671 24.24ZM97.8728 24.24C96.8808 24.24 96.0008 24.072 95.2328 23.736C94.4808 23.4 93.8888 22.936 93.4568 22.344C93.0408 21.736 92.8328 21.04 92.8328 20.256C92.8328 19.072 93.3208 18.128 94.2968 17.424C95.2888 16.72 96.6248 16.368 98.3047 16.368C99.7608 16.368 100.929 16.68 101.809 17.304V16.728C101.809 15.976 101.577 15.4 101.113 15C100.649 14.6 99.9768 14.4 99.0968 14.4C97.7848 14.4 96.6568 14.68 95.7128 15.24C95.3128 15.464 94.9688 15.576 94.6808 15.576C94.3288 15.576 94.0168 15.416 93.7448 15.096C93.5688 14.872 93.4808 14.64 93.4808 14.4C93.4808 14 93.6888 13.648 94.1048 13.344C94.6808 12.928 95.4088 12.6 96.2888 12.36C97.1688 12.12 98.0968 12 99.0728 12C100.929 12 102.385 12.424 103.441 13.272C104.513 14.104 105.049 15.256 105.049 16.728V22.896C105.049 23.312 104.905 23.64 104.617 23.88C104.345 24.12 103.969 24.24 103.489 24.24C102.993 24.24 102.609 24.128 102.337 23.904C102.065 23.68 101.929 23.36 101.929 22.944V22.68C101.017 23.72 99.6648 24.24 97.8728 24.24ZM98.6168 22.032C99.6248 22.032 100.409 21.88 100.969 21.576C101.545 21.256 101.833 20.816 101.833 20.256C101.833 19.728 101.545 19.304 100.969 18.984C100.393 18.664 99.6248 18.504 98.6648 18.504C97.8008 18.504 97.1288 18.656 96.6488 18.96C96.1848 19.264 95.9528 19.696 95.9528 20.256C95.9528 20.816 96.1848 21.256 96.6488 21.576C97.1128 21.88 97.7688 22.032 98.6168 22.032ZM114.047 30C112.799 30 111.647 29.816 110.591 29.448C109.551 29.08 108.735 28.576 108.143 27.936C107.919 27.696 107.807 27.424 107.807 27.12C107.807 26.72 107.999 26.36 108.383 26.04C108.623 25.848 108.879 25.752 109.151 25.752C109.567 25.752 110.031 25.984 110.543 26.448C110.927 26.8 111.407 27.072 111.983 27.264C112.575 27.472 113.207 27.576 113.879 27.576C115.127 27.576 116.095 27.2 116.783 26.448C117.471 25.696 117.799 24.656 117.767 23.328L117.743 22.368C117.199 23.008 116.559 23.48 115.823 23.784C115.103 24.088 114.215 24.24 113.159 24.24C111.191 24.24 109.655 23.704 108.551 22.632C107.447 21.544 106.895 20.04 106.895 18.12C106.895 16.2 107.455 14.704 108.575 13.632C109.711 12.544 111.287 12 113.303 12C114.135 12 114.935 12.168 115.703 12.504C116.471 12.84 117.159 13.312 117.767 13.92V13.44C117.767 12.992 117.911 12.64 118.199 12.384C118.487 12.128 118.871 12 119.351 12C119.831 12 120.207 12.128 120.479 12.384C120.767 12.624 120.911 12.976 120.911 13.44V23.328C120.911 24.608 120.631 25.752 120.071 26.76C119.527 27.768 118.735 28.56 117.695 29.136C116.671 29.712 115.455 30 114.047 30ZM113.783 21.744C115.031 21.744 116.007 21.424 116.711 20.784C117.415 20.144 117.767 19.256 117.767 18.12C117.767 16.984 117.415 16.096 116.711 15.456C116.007 14.816 115.031 14.496 113.783 14.496C112.615 14.496 111.703 14.816 111.047 15.456C110.391 16.096 110.063 16.984 110.063 18.12C110.063 19.256 110.391 20.144 111.047 20.784C111.703 21.424 112.615 21.744 113.783 21.744ZM129.672 24.24C128.296 24.24 127.096 23.992 126.072 23.496C125.048 23 124.256 22.304 123.696 21.408C123.152 20.496 122.88 19.432 122.88 18.216C122.88 16.248 123.448 14.72 124.584 13.632C125.736 12.544 127.352 12 129.432 12C130.712 12 131.84 12.2 132.816 12.6C133.808 13 134.576 13.56 135.12 14.28C135.68 14.984 135.96 15.792 135.96 16.704C135.96 17.472 135.712 18.064 135.216 18.48C134.736 18.896 134.048 19.104 133.152 19.104H125.928C125.928 20 126.24 20.68 126.864 21.144C127.504 21.592 128.44 21.816 129.672 21.816C130.968 21.816 132.072 21.528 132.984 20.952C133.496 20.632 133.896 20.472 134.184 20.472C134.456 20.472 134.72 20.6 134.976 20.856C135.248 21.128 135.384 21.424 135.384 21.744C135.384 22.128 135.224 22.432 134.904 22.656C134.232 23.168 133.448 23.56 132.552 23.832C131.656 24.104 130.696 24.24 129.672 24.24ZM132.192 16.896C132.464 16.896 132.656 16.848 132.768 16.752C132.88 16.64 132.936 16.464 132.936 16.224C132.936 15.664 132.616 15.224 131.976 14.904C131.352 14.584 130.504 14.424 129.432 14.424C128.36 14.424 127.512 14.648 126.888 15.096C126.28 15.544 125.976 16.144 125.976 16.896H132.192ZM139.492 24.24C138.996 24.24 138.612 24.112 138.34 23.856C138.068 23.6 137.932 23.248 137.932 22.8V13.44C137.932 12.976 138.06 12.624 138.316 12.384C138.588 12.128 138.964 12 139.444 12C139.924 12 140.3 12.128 140.572 12.384C140.844 12.64 140.98 12.992 140.98 13.44V14.232C141.476 13.592 142.052 13.104 142.708 12.768C143.38 12.416 144.1 12.24 144.868 12.24H145.396C145.908 12.24 146.3 12.352 146.572 12.576C146.86 12.784 147.004 13.088 147.004 13.488C147.004 13.888 146.86 14.2 146.572 14.424C146.3 14.632 145.908 14.736 145.396 14.736H144.58C143.508 14.736 142.652 15.08 142.012 15.768C141.388 16.44 141.076 17.368 141.076 18.552V22.8C141.076 23.248 140.932 23.6 140.644 23.856C140.356 24.112 139.972 24.24 139.492 24.24Z" fill="#38B2AC"/>
<ellipse cx="161.418" cy="17.9233" rx="4.5" ry="5.5" transform="rotate(15 161.418 17.9233)" fill="#38B2AC"/>
<ellipse cx="161.029" cy="19.3722" rx="6.5" ry="5" transform="rotate(15 161.029 19.3722)" fill="#38B2AC"/>
<ellipse cx="156.563" cy="10.9284" rx="2" ry="2.5" transform="rotate(15 156.563 10.9284)" fill="#38B2AC"/>
<ellipse cx="166.257" cy="11.4553" rx="2" ry="2.5" transform="rotate(15 166.257 11.4553)" fill="#38B2AC"/>
<ellipse cx="169.214" cy="15.8714" rx="1.5" ry="2" transform="rotate(15 169.214 15.8714)" fill="#38B2AC"/>
<ellipse cx="161.686" cy="9.19531" rx="2" ry="2.5" transform="rotate(15 161.686 9.19531)" fill="#38B2AC"/>
</svg>
